<svg xmlns="http://www.w3.org/2000/svg" xmlns:xlink="http://www.w3.org/1999/xlink" width="433px" height="204px" viewBox="0 0 433.3762665328511 203.5270318966643">
    <g id="e68f91b4-fa3a-4180-b64a-8ba8b6720e30">
<g style="">
		<g id="e68f91b4-fa3a-4180-b64a-8ba8b6720e30-child-0">
<path style="stroke: rgb(136,136,136); stroke-width: 0; stroke-dasharray: none; stroke-linecap: butt; stroke-dashoffset: 0; stroke-linejoin: miter; stroke-miterlimit: 4; fill: rgb(46,125,50); fill-rule: nonzero; opacity: 1;" transform="matrix(0.068053 -0.243478 0.243478 0.068053 59.599774 105.944377) matrix(1 0 0 1 -0.31 0.23)  translate(-386.27, -272.83)" d="M 767.11 106.19 C 745.86 88.42 708.21 76.83 672.00 91.00 L 670.58 88.08 C 687.57 78.00 697.25 64.47 701.00 45.53 L 702.08 40.08 L 696.80 41.80 C 654.90 55.43 640.80 70.21 626.80 96.24 L 626.37 97.03 L 625.47 97.09 C 615.67 97.67 605.76 98.43 596.02 99.33 L 590.10 99.91 C 579.10 101.01 567.95 102.35 557.10 103.91 L 548.78 105.00 L 556.08 100.81 C 610.84 69.35 619.38 32.14 616.90 6.47 L 616.50 2.24 L 612.50 3.74 C 550.50 27.16 529.17 84.74 522.86 108.47 L 522.59 109.47 L 521.59 109.66 C 514.77 110.94 508.80 112.14 503.33 113.32 C 502.22 113.55 501.11 113.81 500.01 114.06 L 497.66 114.59 C 486.04 117.20 474.60 120.07 463.66 123.13 L 454.66 125.65 L 462.28 120.24 C 519.75 79.45 517.28 48.57 506.07 21.24 L 504.56 17.54 L 501.25 19.77 C 453.39 52.05 436.01 99.01 429.86 132.77 L 429.69 133.71 L 428.79 134.02 C 420.48 136.88 412.97 139.63 405.84 142.43 C 404.25 143.05 402.69 143.69 401.12 144.34 L 399.12 145.16 C 386.61 150.26 374.26 155.82 362.43 161.70 L 354.64 165.57 L 360.50 159.15 C 405.94 109.34 416.85 60.62 407.76 36.42 L 406.47 33.00 L 403.23 34.64 C 341.83 65.86 334.51 131.42 329.67 174.80 L 329.09 179.80 L 328.40 180.21 C 317.23 186.86 306.27 193.99 295.85 201.39 C 293.96 202.73 292.08 204.07 290.22 205.39 C 281.03 212.12 271.88 219.39 263.02 226.91 L 256.61 232.38 L 260.53 224.92 C 296.20 157.00 299.00 93.53 283.61 68.34 L 281.70 65.23 L 278.83 67.47 C 251.16 89.03 233.55 123.47 227.93 167.06 C 224.28 196.37 225.63 226.08 231.93 254.93 L 232.13 255.80 L 231.51 256.44 C 220.16 268.13 209.43 280.41 199.38 293.23 L 199.07 293.62 C 198.07 294.90 197.07 296.19 196.07 297.47 C 189.79 305.68 183.62 314.32 177.74 323.17 L 174.13 328.60 L 174.76 322.11 C 177.65 290.81 175.89 259.25 169.52 228.47 C 160.52 185.75 144.17 156.97 123.42 147.41 L 120.62 146.13 L 119.18 148.86 C 84.84 214.09 129.65 310.48 163.31 343.86 L 164.20 344.75 L 163.56 345.84 C 151.71 366.10 141.28 387.15 132.32 408.84 L 131.84 410.01 C 131.15 411.67 130.46 413.34 129.79 415.01 Q 127.29 421.31 124.97 427.57 L 123.13 432.57 L 121.87 427.43 C 111.17 384.00 87.21 329.79 52.15 308.05 C 37.06 298.69 21.31 296.25 5.31 300.80 L 2.07 301.73 L 3.07 304.94 C 32.65 396.09 77.28 427.34 117.07 445.94 L 118.38 446.55 L 117.93 447.92 C 107.87 478.76 100.35 510.36 95.44 542.42 L 101.88 543.42 C 106.69 512.07 114.01 481.16 123.79 450.99 Q 124.79 447.89 125.79 444.77 C 128.98 435.38 132.18 426.63 135.61 418.04 L 136.26 416.41 L 137.83 417.17 C 141.11 418.76 144.44 420.41 147.93 422.17 C 177.76 437.17 214.93 455.94 273.25 442.27 L 276.74 441.45 L 275.59 438.05 C 270.18 422.11 255.80 407.87 237.12 399.96 C 211.43 389.00 178.52 390.46 144.50 404.00 L 140.81 405.47 L 142.40 401.84 C 150.02 384.39 158.62 367.38 168.17 350.90 C 169.28 349.00 170.41 347.11 171.54 345.22 C 180.26 330.71 189.77 316.67 200.00 303.18 L 201.19 301.62 L 202.50 303.07 C 241.41 345.86 318.72 357.19 368.05 343.15 C 376.59 340.86 384.73 337.31 392.22 332.61 L 395.74 330.29 L 392.61 327.46 C 338.69 278.90 255.39 280.66 214.67 289.37 L 210.07 290.37 L 213.07 286.75 C 219.13 279.47 225.50 272.30 232.00 265.42 L 234.00 263.26 L 234.09 263.61 L 237.72 259.45 C 243.18 253.89 248.15 249.05 252.97 244.58 C 266.32 232.23 280.38 220.69 295.09 210.00 L 296.25 209.16 L 297.25 210.16 C 315.61 229.61 371.49 288.78 440.42 288.98 L 443.42 288.98 L 443.67 285.98 C 444.94 270.63 437.42 254.08 422.49 239.39 C 413.20 230.25 378.22 200.66 315.71 200.66 L 313.71 200.66 L 308.19 200.72 L 312.80 197.72 C 317.24 194.78 321.35 192.16 325.34 189.72 C 328.29 187.90 331.28 186.13 334.28 184.37 C 356.64 171.28 379.94 159.86 404.00 150.23 L 405.15 149.77 L 405.90 150.77 C 446.79 204.77 487.33 233.91 526.40 237.35 L 529.96 237.66 L 529.96 234.09 C 529.86 212.88 518.30 191.09 498.25 174.32 C 485.69 163.82 463.45 150.16 428.85 144.79 L 424.33 144.09 L 430.84 140.27 C 453.75 132.39 477.08 125.84 500.74 120.63 L 502.00 120.35 L 502.56 121.51 C 503.93 124.36 537.01 191.23 608.86 191.23 L 609.47 191.23 L 613.22 191.23 L 612.68 187.53 C 608.25 156.81 567.57 128.60 531.53 117.65 L 525.01 115.65 L 531.72 114.47 C 551.33 111.02 571.83 108.25 592.64 106.21 L 593.89 106.09 L 594.32 107.27 C 603.62 132.27 638.51 167.10 683.89 162.21 L 688.21 161.75 L 686.56 157.75 C 677.45 135.53 657.39 115.81 634.19 106.27 L 627.47 103.51 L 634.73 103.14 C 643.30 102.71 651.18 102.40 658.84 102.20 L 659.55 102.20 L 660.04 102.71 C 673.89 116.71 709.16 131.94 744.24 121.96 C 752.29 119.66 759.93 116.11 766.88 111.43 L 770.47 109.01 Z" stroke-linecap="round"/>
</g>
		<g id="e68f91b4-fa3a-4180-b64a-8ba8b6720e30-child-1">
<path style="stroke: rgb(136,136,136); stroke-width: 0; stroke-dasharray: none; stroke-linecap: butt; stroke-dashoffset: 0; stroke-linejoin: miter; stroke-miterlimit: 4; fill: rgb(46,125,50); fill-rule: nonzero; opacity: 1;" transform="matrix(0.068053 -0.243478 0.243478 0.068053 59.599774 105.944377) matrix(1 0 0 1 0 0)  translate(-386.58, -272.6)" d="M 768.15 104.94 C 746.15 86.53 707.93 75.19 671.39 89.46 C 689.00 79.05 698.80 65.00 702.62 45.85 L 704.25 37.67 L 696.32 40.25 C 654.32 53.92 639.92 68.57 625.41 95.46 Q 610.47 96.36 595.91 97.71 C 593.91 97.89 591.96 98.10 589.98 98.30 Q 573.18 99.97 556.89 102.30 C 611.54 70.90 621.16 33.75 618.53 6.40 L 617.91 0.00 L 611.91 2.26 C 550.09 25.63 528.25 81.86 521.26 108.09 C 515.11 109.25 509.00 110.46 502.97 111.76 C 501.06 112.17 499.18 112.61 497.29 113.04 Q 479.92 116.92 463.21 121.60 C 517.59 83.00 520.80 52.83 507.59 20.68 L 505.31 15.13 L 500.31 18.48 C 452.22 51.00 434.57 98.00 428.27 132.49 Q 416.60 136.49 405.27 140.93 C 403.00 141.82 400.77 142.75 398.52 143.67 Q 379.59 151.37 361.71 160.25 C 404.00 113.91 419.63 63.43 409.27 35.86 L 407.35 30.75 L 402.49 33.22 C 340.32 64.83 332.93 130.92 328.05 174.65 L 327.57 178.84 Q 310.71 188.84 294.91 200.09 C 293.02 201.44 291.13 202.78 289.26 204.09 Q 275.18 214.41 261.97 225.69 C 288.22 175.69 306.17 102.00 284.97 67.44 L 282.12 62.78 L 277.81 66.14 C 249.81 88.00 232.00 122.82 226.31 166.85 C 221.94 200.71 225.44 234.18 230.36 255.30 C 218.97 267.03 208.21 279.35 198.12 292.22 C 197.01 293.64 195.90 295.06 194.81 296.48 Q 185.03 309.24 176.42 322.27 C 179.30 290.80 177.52 259.08 171.14 228.13 C 162.05 184.90 145.36 155.71 124.14 145.94 L 119.94 144.00 L 117.78 148.10 C 81.66 216.69 130.87 314.00 162.19 345.00 C 150.29 365.32 139.82 386.45 130.85 408.22 C 129.99 410.28 129.13 412.34 128.31 414.40 C 126.63 418.62 125.03 422.82 123.48 427.00 C 111.77 379.62 86.94 327.70 53.00 306.67 C 37.50 297.06 21.30 294.56 4.86 299.24 L 0.00 300.63 L 1.56 305.44 C 30.87 395.74 75.66 428.36 116.38 447.36 C 106.14 478.80 98.51 511.04 93.58 543.74 L 103.24 545.20 C 108.04 513.39 115.42 482.03 125.33 451.42 C 126.01 449.36 126.69 447.30 127.39 445.23 Q 131.85 432.03 137.17 418.57 C 140.44 420.15 143.76 421.80 147.25 423.57 C 177.32 438.73 214.75 457.57 273.67 443.79 L 278.91 442.56 L 277.18 437.47 C 271.63 421.09 256.90 406.47 237.80 398.40 C 211.39 387.21 178.41 388.76 143.89 402.54 C 151.48 385.14 160.06 368.19 169.58 351.77 C 170.68 349.88 171.81 347.99 172.94 346.10 C 181.61 331.62 191.06 317.63 201.25 304.17 C 241.82 348.80 319.87 358.55 368.44 344.72 C 377.14 342.39 385.43 338.78 393.06 334.00 L 398.35 330.52 L 393.65 326.29 C 340.00 277.90 257.24 278.60 214.28 287.78 Q 223.28 277.01 233.15 266.53 L 233.27 267.01 L 238.95 260.51 C 243.84 255.51 248.85 250.60 254.07 245.76 C 267.38 233.45 281.40 221.94 296.07 211.29 C 315.35 231.70 371.55 290.42 440.42 290.62 L 444.93 290.62 L 445.30 286.13 C 446.61 270.30 438.93 253.29 423.64 238.25 C 403.20 218.14 364.38 198.55 313.64 199.06 Q 319.82 194.98 326.15 191.06 C 329.09 189.25 332.07 187.49 335.05 185.73 C 357.34 172.68 380.58 161.31 404.57 151.73 C 445.72 206.09 486.64 235.47 526.23 238.95 L 531.57 239.42 L 531.57 234.06 C 531.46 212.37 519.69 190.13 499.27 173.06 C 485.80 161.79 463.32 148.48 429.08 143.16 L 431.65 141.66 C 454.40 133.86 477.58 127.36 501.07 122.19 C 510.63 142.02 546.58 193.19 609.46 192.83 L 615.07 192.83 L 614.27 187.28 C 609.51 154.28 566.33 126.51 531.98 116.07 Q 561.47 110.89 592.78 107.84 C 601.91 132.42 637.14 168.84 684.05 163.84 L 690.51 163.15 L 688.05 157.15 C 679.67 136.70 660.82 115.49 634.79 104.79 Q 646.72 104.18 658.87 103.85 C 673.55 118.72 709.75 133.47 744.66 123.52 C 752.88 121.18 760.68 117.55 767.77 112.78 L 773.16 109.15 Z M 12.53 307.48 C 24.53 305.34 36.39 307.85 47.87 314.96 C 80.87 335.41 105.34 390.23 115.59 436.17 C 77.46 417.45 39.43 386.85 12.53 307.48 Z M 234.00 407.38 C 248.51 413.52 260.00 423.80 265.83 435.50 C 213.55 446.05 179.33 428.80 151.65 414.83 L 146.19 412.09 C 178.78 398.78 209.64 397.06 234.00 407.38 Z M 165.16 334.00 C 136.94 302.17 96.53 217.52 124.23 157.15 C 158.77 179.13 175.00 268.82 165.16 334.00 Z M 382.00 329.12 C 341.49 349.80 252.74 344.47 209.70 298.88 C 249.36 288.28 330.32 287.39 382.00 329.12 Z M 238.33 245.68 C 231.00 206.00 228.00 122.34 279.28 77.64 C 287.28 95.95 286.28 126.30 276.40 162.34 C 267.77 193.79 253.31 225.22 238.33 245.68 Z M 416.78 245.22 C 428.41 256.67 434.96 269.11 435.61 280.74 C 377.32 278.07 328.35 230.88 307.30 209.00 C 358.22 206.62 396.92 225.68 416.78 245.22 Z M 338.42 169.79 C 343.02 129.66 351.53 73.59 401.69 44.79 C 407.64 73.57 386.27 125.64 338.42 169.79 Z M 521.42 228.54 C 487.72 223.27 452.53 197.37 416.62 151.44 C 484.60 157.84 517.67 197.84 521.43 228.54 Z M 500.76 30.12 C 509.48 54.86 508.01 83.12 439.66 125.49 C 446.63 95.30 463.00 57.76 500.76 30.12 Z M 603.26 182.93 C 553.17 180.14 522.26 140.49 511.76 121.64 C 541.05 124.58 593.31 151.64 603.26 182.93 Z M 609.15 13.93 C 609.29 40.52 594.69 75.28 532.68 103.73 C 541.40 75.47 561.85 34.50 609.15 13.93 Z M 676.05 154.51 C 640.05 154.82 612.19 127.41 603.17 107.51 C 637.80 109.24 664.00 131.52 676.05 154.51 Z M 638.25 92.58 C 649.81 73.36 662.25 62.75 690.79 52.47 C 685.68 67.32 673.37 82.40 638.25 92.58 Z M 674.08 103.58 C 672.61 102.64 671.22 101.68 669.96 100.71 C 672.49 99.53 675.04 98.55 677.59 97.65 C 706.72 87.37 736.69 94.73 756.35 108.27 C 727.00 124.00 692.68 115.52 674.08 103.54 Z" stroke-linecap="round"/>
</g>
</g>
</g>
<g id="737d8d38-d626-48f0-8072-f9caabbffc3e">
<g style="">
		<g id="737d8d38-d626-48f0-8072-f9caabbffc3e-child-0">
<path style="stroke: rgb(136,136,136); stroke-width: 0; stroke-dasharray: none; stroke-linecap: butt; stroke-dashoffset: 0; stroke-linejoin: miter; stroke-miterlimit: 4; fill: rgb(46,125,50); fill-rule: nonzero; opacity: 1;" transform="matrix(-0.068053 -0.243478 -0.243478 0.068053 374.239601 105.944043) matrix(1 0 0 1 -0.31 0.23)  translate(-386.27, -272.83)" d="M 767.11 106.19 C 745.86 88.42 708.21 76.83 672.00 91.00 L 670.58 88.08 C 687.57 78.00 697.25 64.47 701.00 45.53 L 702.08 40.08 L 696.80 41.80 C 654.90 55.43 640.80 70.21 626.80 96.24 L 626.37 97.03 L 625.47 97.09 C 615.67 97.67 605.76 98.43 596.02 99.33 L 590.10 99.91 C 579.10 101.01 567.95 102.35 557.10 103.91 L 548.78 105.00 L 556.08 100.81 C 610.84 69.35 619.38 32.14 616.90 6.47 L 616.50 2.24 L 612.50 3.74 C 550.50 27.16 529.17 84.74 522.86 108.47 L 522.59 109.47 L 521.59 109.66 C 514.77 110.94 508.80 112.14 503.33 113.32 C 502.22 113.55 501.11 113.81 500.01 114.06 L 497.66 114.59 C 486.04 117.20 474.60 120.07 463.66 123.13 L 454.66 125.65 L 462.28 120.24 C 519.75 79.45 517.28 48.57 506.07 21.24 L 504.56 17.54 L 501.25 19.77 C 453.39 52.05 436.01 99.01 429.86 132.77 L 429.69 133.71 L 428.79 134.02 C 420.48 136.88 412.97 139.63 405.84 142.43 C 404.25 143.05 402.69 143.69 401.12 144.34 L 399.12 145.16 C 386.61 150.26 374.26 155.82 362.43 161.70 L 354.64 165.57 L 360.50 159.15 C 405.94 109.34 416.85 60.62 407.76 36.42 L 406.47 33.00 L 403.23 34.64 C 341.83 65.86 334.51 131.42 329.67 174.80 L 329.09 179.80 L 328.40 180.21 C 317.23 186.86 306.27 193.99 295.85 201.39 C 293.96 202.73 292.08 204.07 290.22 205.39 C 281.03 212.12 271.88 219.39 263.02 226.91 L 256.61 232.38 L 260.53 224.92 C 296.20 157.00 299.00 93.53 283.61 68.34 L 281.70 65.23 L 278.83 67.47 C 251.16 89.03 233.55 123.47 227.93 167.06 C 224.28 196.37 225.63 226.08 231.93 254.93 L 232.13 255.80 L 231.51 256.44 C 220.16 268.13 209.43 280.41 199.38 293.23 L 199.07 293.62 C 198.07 294.90 197.07 296.19 196.07 297.47 C 189.79 305.68 183.62 314.32 177.74 323.17 L 174.13 328.60 L 174.76 322.11 C 177.65 290.81 175.89 259.25 169.52 228.47 C 160.52 185.75 144.17 156.97 123.42 147.41 L 120.62 146.13 L 119.18 148.86 C 84.84 214.09 129.65 310.48 163.31 343.86 L 164.20 344.75 L 163.56 345.84 C 151.71 366.10 141.28 387.15 132.32 408.84 L 131.84 410.01 C 131.15 411.67 130.46 413.34 129.79 415.01 Q 127.29 421.31 124.97 427.57 L 123.13 432.57 L 121.87 427.43 C 111.17 384.00 87.21 329.79 52.15 308.05 C 37.06 298.69 21.31 296.25 5.31 300.80 L 2.07 301.73 L 3.07 304.94 C 32.65 396.09 77.28 427.34 117.07 445.94 L 118.38 446.55 L 117.93 447.92 C 107.87 478.76 100.35 510.36 95.44 542.42 L 101.88 543.42 C 106.69 512.07 114.01 481.16 123.79 450.99 Q 124.79 447.89 125.79 444.77 C 128.98 435.38 132.18 426.63 135.61 418.04 L 136.26 416.41 L 137.83 417.17 C 141.11 418.76 144.44 420.41 147.93 422.17 C 177.76 437.17 214.93 455.94 273.25 442.27 L 276.74 441.45 L 275.59 438.05 C 270.18 422.11 255.80 407.87 237.12 399.96 C 211.43 389.00 178.52 390.46 144.50 404.00 L 140.81 405.47 L 142.40 401.84 C 150.02 384.39 158.62 367.38 168.17 350.90 C 169.28 349.00 170.41 347.11 171.54 345.22 C 180.26 330.71 189.77 316.67 200.00 303.18 L 201.19 301.62 L 202.50 303.07 C 241.41 345.86 318.72 357.19 368.05 343.15 C 376.59 340.86 384.73 337.31 392.22 332.61 L 395.74 330.29 L 392.61 327.46 C 338.69 278.90 255.39 280.66 214.67 289.37 L 210.07 290.37 L 213.07 286.75 C 219.13 279.47 225.50 272.30 232.00 265.42 L 234.00 263.26 L 234.09 263.61 L 237.72 259.45 C 243.18 253.89 248.15 249.05 252.97 244.58 C 266.32 232.23 280.38 220.69 295.09 210.00 L 296.25 209.16 L 297.25 210.16 C 315.61 229.61 371.49 288.78 440.42 288.98 L 443.42 288.98 L 443.67 285.98 C 444.94 270.63 437.42 254.08 422.49 239.39 C 413.20 230.25 378.22 200.66 315.71 200.66 L 313.71 200.66 L 308.19 200.72 L 312.80 197.72 C 317.24 194.78 321.35 192.16 325.34 189.72 C 328.29 187.90 331.28 186.13 334.28 184.37 C 356.64 171.28 379.94 159.86 404.00 150.23 L 405.15 149.77 L 405.90 150.77 C 446.79 204.77 487.33 233.91 526.40 237.35 L 529.96 237.66 L 529.96 234.09 C 529.86 212.88 518.30 191.09 498.25 174.32 C 485.69 163.82 463.45 150.16 428.85 144.79 L 424.33 144.09 L 430.84 140.27 C 453.75 132.39 477.08 125.84 500.74 120.63 L 502.00 120.35 L 502.56 121.51 C 503.93 124.36 537.01 191.23 608.86 191.23 L 609.47 191.23 L 613.22 191.23 L 612.68 187.53 C 608.25 156.81 567.57 128.60 531.53 117.65 L 525.01 115.65 L 531.72 114.47 C 551.33 111.02 571.83 108.25 592.64 106.21 L 593.89 106.09 L 594.32 107.27 C 603.62 132.27 638.51 167.10 683.89 162.21 L 688.21 161.75 L 686.56 157.75 C 677.45 135.53 657.39 115.81 634.19 106.27 L 627.47 103.51 L 634.73 103.14 C 643.30 102.71 651.18 102.40 658.84 102.20 L 659.55 102.20 L 660.04 102.71 C 673.89 116.71 709.16 131.94 744.24 121.96 C 752.29 119.66 759.93 116.11 766.88 111.43 L 770.47 109.01 Z" stroke-linecap="round"/>
</g>
		<g id="737d8d38-d626-48f0-8072-f9caabbffc3e-child-1">
<path style="stroke: rgb(136,136,136); stroke-width: 0; stroke-dasharray: none; stroke-linecap: butt; stroke-dashoffset: 0; stroke-linejoin: miter; stroke-miterlimit: 4; fill: rgb(46,125,50); fill-rule: nonzero; opacity: 1;" transform="matrix(-0.068053 -0.243478 -0.243478 0.068053 374.239601 105.944043) matrix(1 0 0 1 0 0)  translate(-386.58, -272.6)" d="M 768.15 104.94 C 746.15 86.53 707.93 75.19 671.39 89.46 C 689.00 79.05 698.80 65.00 702.62 45.85 L 704.25 37.67 L 696.32 40.25 C 654.32 53.92 639.92 68.57 625.41 95.46 Q 610.47 96.36 595.91 97.71 C 593.91 97.89 591.96 98.10 589.98 98.30 Q 573.18 99.97 556.89 102.30 C 611.54 70.90 621.16 33.75 618.53 6.40 L 617.91 0.00 L 611.91 2.26 C 550.09 25.63 528.25 81.86 521.26 108.09 C 515.11 109.25 509.00 110.46 502.97 111.76 C 501.06 112.17 499.18 112.61 497.29 113.04 Q 479.92 116.92 463.21 121.60 C 517.59 83.00 520.80 52.83 507.59 20.68 L 505.31 15.13 L 500.31 18.48 C 452.22 51.00 434.57 98.00 428.27 132.49 Q 416.60 136.49 405.27 140.93 C 403.00 141.82 400.77 142.75 398.52 143.67 Q 379.59 151.37 361.71 160.25 C 404.00 113.91 419.63 63.43 409.27 35.86 L 407.35 30.75 L 402.49 33.22 C 340.32 64.83 332.93 130.92 328.05 174.65 L 327.57 178.84 Q 310.71 188.84 294.91 200.09 C 293.02 201.44 291.13 202.78 289.26 204.09 Q 275.18 214.41 261.97 225.69 C 288.22 175.69 306.17 102.00 284.97 67.44 L 282.12 62.78 L 277.81 66.14 C 249.81 88.00 232.00 122.82 226.31 166.85 C 221.94 200.71 225.44 234.18 230.36 255.30 C 218.97 267.03 208.21 279.35 198.12 292.22 C 197.01 293.64 195.90 295.06 194.81 296.48 Q 185.03 309.24 176.42 322.27 C 179.30 290.80 177.52 259.08 171.14 228.13 C 162.05 184.90 145.36 155.71 124.14 145.94 L 119.94 144.00 L 117.78 148.10 C 81.66 216.69 130.87 314.00 162.19 345.00 C 150.29 365.32 139.82 386.45 130.85 408.22 C 129.99 410.28 129.13 412.34 128.31 414.40 C 126.63 418.62 125.03 422.82 123.48 427.00 C 111.77 379.62 86.94 327.70 53.00 306.67 C 37.50 297.06 21.30 294.56 4.86 299.24 L 0.00 300.63 L 1.56 305.44 C 30.87 395.74 75.66 428.36 116.38 447.36 C 106.14 478.80 98.51 511.04 93.58 543.74 L 103.24 545.20 C 108.04 513.39 115.42 482.03 125.33 451.42 C 126.01 449.36 126.69 447.30 127.39 445.23 Q 131.85 432.03 137.17 418.57 C 140.44 420.15 143.76 421.80 147.25 423.57 C 177.32 438.73 214.75 457.57 273.67 443.79 L 278.91 442.56 L 277.18 437.47 C 271.63 421.09 256.90 406.47 237.80 398.40 C 211.39 387.21 178.41 388.76 143.89 402.54 C 151.48 385.14 160.06 368.19 169.58 351.77 C 170.68 349.88 171.81 347.99 172.94 346.10 C 181.61 331.62 191.06 317.63 201.25 304.17 C 241.82 348.80 319.87 358.55 368.44 344.72 C 377.14 342.39 385.43 338.78 393.06 334.00 L 398.35 330.52 L 393.65 326.29 C 340.00 277.90 257.24 278.60 214.28 287.78 Q 223.28 277.01 233.15 266.53 L 233.27 267.01 L 238.95 260.51 C 243.84 255.51 248.85 250.60 254.07 245.76 C 267.38 233.45 281.40 221.94 296.07 211.29 C 315.35 231.70 371.55 290.42 440.42 290.62 L 444.93 290.62 L 445.30 286.13 C 446.61 270.30 438.93 253.29 423.64 238.25 C 403.20 218.14 364.38 198.55 313.64 199.06 Q 319.82 194.98 326.15 191.06 C 329.09 189.25 332.07 187.49 335.05 185.73 C 357.34 172.68 380.58 161.31 404.57 151.73 C 445.72 206.09 486.64 235.47 526.23 238.95 L 531.57 239.42 L 531.57 234.06 C 531.46 212.37 519.69 190.13 499.27 173.06 C 485.80 161.79 463.32 148.48 429.08 143.16 L 431.65 141.66 C 454.40 133.86 477.58 127.36 501.07 122.19 C 510.63 142.02 546.58 193.19 609.46 192.83 L 615.07 192.83 L 614.27 187.28 C 609.51 154.28 566.33 126.51 531.98 116.07 Q 561.47 110.89 592.78 107.84 C 601.91 132.42 637.14 168.84 684.05 163.84 L 690.51 163.15 L 688.05 157.15 C 679.67 136.70 660.82 115.49 634.79 104.79 Q 646.72 104.18 658.87 103.85 C 673.55 118.72 709.75 133.47 744.66 123.52 C 752.88 121.18 760.68 117.55 767.77 112.78 L 773.16 109.15 Z M 12.53 307.48 C 24.53 305.34 36.39 307.85 47.87 314.96 C 80.87 335.41 105.34 390.23 115.59 436.17 C 77.46 417.45 39.43 386.85 12.53 307.48 Z M 234.00 407.38 C 248.51 413.52 260.00 423.80 265.83 435.50 C 213.55 446.05 179.33 428.80 151.65 414.83 L 146.19 412.09 C 178.78 398.78 209.64 397.06 234.00 407.38 Z M 165.16 334.00 C 136.94 302.17 96.53 217.52 124.23 157.15 C 158.77 179.13 175.00 268.82 165.16 334.00 Z M 382.00 329.12 C 341.49 349.80 252.74 344.47 209.70 298.88 C 249.36 288.28 330.32 287.39 382.00 329.12 Z M 238.33 245.68 C 231.00 206.00 228.00 122.34 279.28 77.64 C 287.28 95.95 286.28 126.30 276.40 162.34 C 267.77 193.79 253.31 225.22 238.33 245.68 Z M 416.78 245.22 C 428.41 256.67 434.96 269.11 435.61 280.74 C 377.32 278.07 328.35 230.88 307.30 209.00 C 358.22 206.62 396.92 225.68 416.78 245.22 Z M 338.42 169.79 C 343.02 129.66 351.53 73.59 401.69 44.79 C 407.64 73.57 386.27 125.64 338.42 169.79 Z M 521.42 228.54 C 487.72 223.27 452.53 197.37 416.62 151.44 C 484.60 157.84 517.67 197.84 521.43 228.54 Z M 500.76 30.12 C 509.48 54.86 508.01 83.12 439.66 125.49 C 446.63 95.30 463.00 57.76 500.76 30.12 Z M 603.26 182.93 C 553.17 180.14 522.26 140.49 511.76 121.64 C 541.05 124.58 593.31 151.64 603.26 182.93 Z M 609.15 13.93 C 609.29 40.52 594.69 75.28 532.68 103.73 C 541.40 75.47 561.85 34.50 609.15 13.93 Z M 676.05 154.51 C 640.05 154.82 612.19 127.41 603.17 107.51 C 637.80 109.24 664.00 131.52 676.05 154.51 Z M 638.25 92.58 C 649.81 73.36 662.25 62.75 690.79 52.47 C 685.68 67.32 673.37 82.40 638.25 92.58 Z M 674.08 103.58 C 672.61 102.64 671.22 101.68 669.96 100.71 C 672.49 99.53 675.04 98.55 677.59 97.65 C 706.72 87.37 736.69 94.73 756.35 108.27 C 727.00 124.00 692.68 115.52 674.08 103.54 Z" stroke-linecap="round"/>
</g>
</g>
</g>
<g id="1dc00633-e1d8-4d64-bcc5-a94488def998">
<g style="">
		<g id="1dc00633-e1d8-4d64-bcc5-a94488def998-child-0">
<path style="stroke: rgb(136,136,136); stroke-width: 0; stroke-dasharray: none; stroke-linecap: butt; stroke-dashoffset: 0; stroke-linejoin: miter; stroke-miterlimit: 4; fill: rgb(46,125,50); fill-rule: nonzero; opacity: 1;" d="M91.16561,127.07538v-2.63985h252.9631v2.63985z" stroke-linecap="round"/>
</g>
</g>
</g>
<g transform="matrix(1 0 0 1 -393.843443 -392.882976)" id="e0c1dbb7-b2f9-4fc8-8448-aed3993549e4">

</g>
<g id="26305cda-9808-4632-bf7a-eb1ea90eb7d6">
<g style="">
		<g id="75ea8e05-50ee-477e-a55f-24503f767dfa">
<path style="stroke: rgb(136,136,136); stroke-width: 0; stroke-dasharray: none; stroke-linecap: butt; stroke-dashoffset: 0; stroke-linejoin: miter; stroke-miterlimit: 4; fill: rgb(46,125,50); fill-rule: nonzero; opacity: 1;" d="M120.74708,13.6514v4.83h-6.44v82.09h-6.44v-82.09h-6.44v-4.83zM132.01708,53.8914h6.43v-40.24h6.44v86.92h-6.44v-41.85h-6.43v41.85h-6.44v-86.92h6.44zM165.81708,18.4814h-8.05v33.8h6.44v4.83h-6.44v38.63h8.05v4.83h-14.49v-86.92h14.49zM200.26708,13.6514h6.44l1.61,86.92h-6.44v-59.56l-4.83,54.73h-3.21l-4.83,-54.73v59.56h-6.44l1.61,-86.92h6.44l4.82,59.56zM221.99708,13.6514v86.92h-6.44v-86.92zM240.50708,79.3914c0,-3.55 -0.18,-6.6 -0.55,-9.15c-0.37,-2.55 -0.85,-4.77 -1.46,-6.67c-0.6,-1.89 -1.29,-3.54 -2.06,-4.95c-0.77,-1.41 -1.56,-2.73 -2.36,-3.97c-0.81,-1.25 -1.6,-2.49 -2.37,-3.73c-0.77,-1.24 -1.46,-2.65 -2.06,-4.22c-0.61,-1.58 -1.09,-3.4 -1.46,-5.46c-0.37,-2.06 -0.55,-4.53 -0.55,-7.42v-12.12c0,-0.81 0.12,-1.72 0.37,-2.74c0.25,-1.03 0.73,-1.98 1.44,-2.87c0.7,-0.89 1.68,-1.64 2.94,-2.26c1.26,-0.62 2.89,-0.93 4.9,-0.93c2.01,0 3.65,0.31 4.91,0.93c1.26,0.62 2.24,1.37 2.94,2.26c0.71,0.89 1.19,1.84 1.44,2.87c0.25,1.02 0.37,1.93 0.37,2.74v22.53h-6.44v-22.53c0,-0.81 -0.09,-1.47 -0.27,-1.99c-0.19,-0.52 -0.43,-0.92 -0.73,-1.21c-0.3,-0.28 -0.64,-0.48 -1.03,-0.6c-0.39,-0.11 -0.78,-0.17 -1.19,-0.17c-0.4,0 -0.79,0.06 -1.18,0.17c-0.39,0.12 -0.73,0.32 -1.03,0.6c-0.3,0.29 -0.54,0.69 -0.73,1.21c-0.18,0.52 -0.27,1.18 -0.27,1.99v9.81c0,3.79 0.32,6.95 0.95,9.5c0.64,2.55 1.44,4.78 2.39,6.67c0.95,1.89 1.98,3.61 3.09,5.15c1.11,1.55 2.14,3.22 3.1,5.01c0.95,1.79 1.75,3.87 2.39,6.24c0.63,2.36 0.95,5.3 0.95,8.82v19.62c0,0.41 -0.05,1.14 -0.15,2.19c-0.1,1.05 -0.45,2.13 -1.05,3.24c-0.61,1.11 -1.56,2.09 -2.87,2.95c-1.31,0.85 -3.17,1.28 -5.59,1.28c-2.41,0 -4.27,-0.43 -5.58,-1.28c-1.31,-0.86 -2.26,-1.84 -2.87,-2.95c-0.6,-1.11 -0.95,-2.19 -1.05,-3.24c-0.1,-1.05 -0.15,-1.78 -0.15,-2.19v-28.97h6.44v28.97c0,0.41 0.02,0.89 0.05,1.44c0.03,0.55 0.15,1.08 0.35,1.58c0.2,0.5 0.52,0.93 0.95,1.28c0.44,0.35 1.06,0.53 1.86,0.53c0.81,0 1.43,-0.18 1.87,-0.53c0.43,-0.35 0.75,-0.78 0.95,-1.28c0.2,-0.5 0.32,-1.03 0.35,-1.58c0.03,-0.55 0.05,-1.03 0.05,-1.44zM263.04708,79.3914c0,-3.55 -0.18,-6.6 -0.55,-9.15c-0.37,-2.55 -0.86,-4.77 -1.46,-6.67c-0.61,-1.89 -1.3,-3.54 -2.07,-4.95c-0.77,-1.41 -1.55,-2.73 -2.36,-3.97c-0.81,-1.25 -1.59,-2.49 -2.36,-3.73c-0.77,-1.24 -1.46,-2.65 -2.07,-4.22c-0.6,-1.58 -1.09,-3.4 -1.46,-5.46c-0.37,-2.06 -0.55,-4.53 -0.55,-7.42v-12.12c0,-0.81 0.13,-1.72 0.38,-2.74c0.25,-1.03 0.73,-1.98 1.43,-2.87c0.71,-0.89 1.69,-1.64 2.95,-2.26c1.25,-0.62 2.89,-0.93 4.9,-0.93c2.01,0 3.65,0.31 4.9,0.93c1.26,0.62 2.24,1.37 2.95,2.26c0.7,0.89 1.18,1.84 1.43,2.87c0.25,1.02 0.38,1.93 0.38,2.74v22.53h-6.44v-22.53c0,-0.81 -0.09,-1.47 -0.28,-1.99c-0.18,-0.52 -0.42,-0.92 -0.73,-1.21c-0.3,-0.28 -0.64,-0.48 -1.03,-0.6c-0.39,-0.11 -0.78,-0.17 -1.18,-0.17c-0.4,0 -0.79,0.06 -1.18,0.17c-0.39,0.12 -0.73,0.32 -1.03,0.6c-0.31,0.29 -0.55,0.69 -0.73,1.21c-0.19,0.52 -0.28,1.18 -0.28,1.99v9.81c0,3.79 0.32,6.95 0.96,9.5c0.63,2.55 1.43,4.78 2.39,6.67c0.95,1.89 1.98,3.61 3.09,5.15c1.11,1.55 2.14,3.22 3.09,5.01c0.96,1.79 1.76,3.87 2.39,6.24c0.64,2.36 0.96,5.3 0.96,8.82v19.62c0,0.41 -0.05,1.14 -0.15,2.19c-0.1,1.05 -0.45,2.13 -1.06,3.24c-0.61,1.11 -1.56,2.09 -2.87,2.95c-1.31,0.85 -3.17,1.28 -5.58,1.28c-2.41,0 -4.27,-0.43 -5.58,-1.28c-1.31,-0.86 -2.27,-1.84 -2.87,-2.95c-0.61,-1.11 -0.96,-2.19 -1.06,-3.24c-0.1,-1.05 -0.15,-1.78 -0.15,-2.19v-28.97h6.44v28.97c0,0.41 0.02,0.89 0.05,1.44c0.03,0.55 0.15,1.08 0.35,1.58c0.2,0.5 0.52,0.93 0.96,1.28c0.43,0.35 1.05,0.53 1.86,0.53c0.81,0 1.43,-0.18 1.86,-0.53c0.43,-0.35 0.75,-0.78 0.96,-1.28c0.2,-0.5 0.32,-1.03 0.35,-1.58c0.03,-0.55 0.05,-1.03 0.05,-1.44zM281.55708,13.6514v86.92h-6.44v-86.92zM308.11708,92.5214c0,0.41 -0.05,1.14 -0.15,2.19c-0.1,1.05 -0.45,2.13 -1.06,3.24c-0.6,1.11 -1.56,2.09 -2.87,2.95c-1.31,0.85 -3.17,1.28 -5.58,1.28c-2.41,0 -4.27,-0.43 -5.58,-1.28c-1.31,-0.86 -2.26,-1.84 -2.87,-2.95c-0.61,-1.11 -0.96,-2.19 -1.06,-3.24c-0.1,-1.05 -0.15,-1.78 -0.15,-2.19v-70.82c0,-0.27 0.02,-0.67 0.05,-1.21c0.03,-0.53 0.13,-1.13 0.3,-1.78c0.17,-0.65 0.46,-1.33 0.86,-2.02c0.4,-0.69 0.95,-1.31 1.66,-1.88c0.71,-0.57 1.61,-1.04 2.72,-1.39c1.11,-0.35 2.46,-0.52 4.07,-0.52c1.61,0 2.96,0.17 4.07,0.52c1.11,0.35 2.01,0.82 2.72,1.39c0.71,0.57 1.26,1.19 1.66,1.88c0.4,0.69 0.69,1.37 0.86,2.02c0.17,0.65 0.27,1.25 0.3,1.78c0.03,0.54 0.05,0.94 0.05,1.21zM295.23708,92.5214c0,0.41 0.02,0.89 0.05,1.44c0.03,0.55 0.15,1.08 0.35,1.58c0.21,0.5 0.53,0.93 0.96,1.28c0.43,0.35 1.05,0.53 1.86,0.53c0.81,0 1.43,-0.18 1.86,-0.53c0.44,-0.35 0.76,-0.78 0.96,-1.28c0.2,-0.5 0.32,-1.03 0.35,-1.58c0.03,-0.55 0.05,-1.03 0.05,-1.44v-70.82c0,-0.4 -0.02,-0.84 -0.05,-1.31c-0.03,-0.47 -0.15,-0.89 -0.35,-1.28c-0.2,-0.39 -0.52,-0.71 -0.96,-0.98c-0.43,-0.27 -1.05,-0.4 -1.86,-0.4c-0.81,0 -1.43,0.13 -1.86,0.4c-0.43,0.27 -0.75,0.59 -0.96,0.98c-0.2,0.39 -0.32,0.81 -0.35,1.28c-0.03,0.47 -0.05,0.91 -0.05,1.31zM333.86708,100.5714h-6.44l-8.04,-64.38v64.38h-4.83v-86.92h6.43l8.05,64.39v-64.39h4.83z" stroke-linecap="round"/>
</g>
</g>
</g>
<g transform="matrix(1 0 0 1 -393.843443 -392.882976)" id="05ec542a-5f51-49f2-811c-31a99c28fa2c">

</g>
<g transform="matrix(1 0 0 1 -393.843443 -392.882976)" id="54b624cb-436d-4081-9561-c3748cc4784c">

</g>

  </svg>