<svg xmlns="http://www.w3.org/2000/svg" xmlns:xlink="http://www.w3.org/1999/xlink" width="438px" height="307px" viewBox="0 0 438.1516528918519 306.85985788941275">
    <g id="e7931aa2-c40b-4b45-881d-37a5e7629c19">
<g style="">
		<g id="e7931aa2-c40b-4b45-881d-37a5e7629c19-child-0">
<path style="stroke: rgb(193,193,193); stroke-width: 0; stroke-dasharray: none; stroke-linecap: butt; stroke-dashoffset: 0; stroke-linejoin: miter; stroke-miterlimit: 4; fill: rgb(0,0,0); fill-opacity: 0; fill-rule: nonzero; opacity: 1;" transform="matrix(1.483474 0 0 1.483474 219.511716 152.683331) matrix(1 0 0 1 0 0)  translate(0, 0)" d="M -256.00 0.00 C -256.00 -141.38 -141.38 -256.00 0.00 -256.00 C 141.38 -256.00 256.00 -141.38 256.00 0.00 C 256.00 141.38 141.38 256.00 0.00 256.00 C -141.38 256.00 -256.00 141.38 -256.00 0.00 z" stroke-linecap="round"/>
</g>
		<g id="e7931aa2-c40b-4b45-881d-37a5e7629c19-child-1">
<path style="stroke: rgb(193,193,193); stroke-width: 0; stroke-dasharray: none; stroke-linecap: butt; stroke-dashoffset: 0; stroke-linejoin: miter; stroke-miterlimit: 4; fill: rgb(46,125,50); fill-rule: nonzero; opacity: 1;" transform="matrix(1.483474 0 0 1.483474 219.511716 152.683331) matrix(1 0 0 1 -0.194363 0.136879)  translate(-255.805637, -256.13688)" d="M 402.50 323.80 C 402.10 322.60 401.30 321.70 400.20 321.10 C 399.30 320.70 378.90 310.60 348.50 307.20 C 346.60 307.00 344.50 306.80 342.40 306.60 C 333.90 295.50 328.40 284.20 326.10 273.00 C 329.60 252.90 349.50 251.10 351.80 251.00 C 354.30 250.90 356.30 248.70 356.20 246.10 C 356.10 244.90 355.60 243.70 354.70 242.90 C 353.80 242.10 352.60 241.60 351.40 241.70 C 351.10 241.70 343.80 242.10 335.80 246.10 C 331.70 248.20 328.10 250.80 325.20 254.00 C 326.70 240.30 333.30 226.90 344.60 214.20 C 358.00 199.10 349.00 159.50 348.60 157.80 C 348.00 155.30 345.50 153.70 343.00 154.30 C 340.50 154.90 338.90 157.40 339.50 159.90 C 342.70 174.00 345.10 199.60 337.60 208.10 C 322.40 225.20 314.90 243.50 315.40 262.40 C 315.50 266.30 316.00 270.20 316.70 274.10 L 316.70 274.20 C 316.70 274.30 316.70 274.50 316.80 274.60 L 316.90 274.80 C 317.70 278.70 318.90 282.70 320.40 286.60 C 313.50 283.30 309.30 279.40 308.60 275.80 C 308.20 273.30 305.80 271.60 303.20 272.00 C 300.70 272.40 299.00 274.80 299.40 277.40 C 301.60 290.30 319.70 296.90 326.10 298.80 C 327.50 301.30 329.00 303.70 330.70 306.20 C 322.70 306.20 314.80 306.70 307.10 307.80 C 301.90 302.80 297.00 297.10 292.50 290.60 C 295.10 284.20 301.40 264.90 294.40 243.50 C 295.60 234.70 309.10 228.90 309.70 228.60 C 312.10 227.60 313.20 224.90 312.20 222.50 C 311.20 220.10 308.50 219.00 306.10 220.00 C 305.70 220.20 296.50 224.00 290.40 231.10 C 290.10 229.40 290.00 227.60 290.00 225.80 C 290.00 205.00 305.90 182.30 306.50 181.30 C 308.00 179.20 307.50 176.30 305.40 174.80 C 303.30 173.30 300.40 173.80 298.90 175.90 C 298.10 177.00 294.40 182.30 290.50 190.00 C 288.00 186.20 285.00 183.70 281.60 182.30 C 279.20 181.40 276.50 182.50 275.60 184.90 C 274.70 187.30 275.80 190.00 278.20 190.90 C 281.50 192.20 284.30 196.90 285.70 200.80 C 279.60 216.90 278.90 230.80 283.70 241.90 C 290.10 256.80 288.20 271.40 285.90 280.20 C 282.50 274.20 279.40 267.70 276.70 260.90 C 270.50 245.60 268.40 233.90 268.40 233.80 C 267.90 231.30 265.50 229.60 263.00 230.10 C 260.50 230.60 258.80 233.00 259.30 235.50 C 259.50 236.30 260.80 243.20 264.00 253.20 C 260.40 252.10 256.30 251.60 251.90 251.60 C 249.30 251.60 247.30 253.70 247.30 256.20 C 247.30 258.70 249.40 260.80 251.90 260.80 C 262.60 260.80 267.30 264.50 268.70 265.90 C 275.80 283.20 285.00 297.90 295.90 309.60 C 277.90 313.50 261.10 320.70 245.70 331.00 L 245.70 234.30 C 248.90 212.90 270.60 211.60 271.50 211.50 C 274.00 211.40 276.00 209.20 275.90 206.60 C 275.80 204.00 273.60 202.10 271.00 202.20 C 270.70 202.20 263.40 202.60 255.40 206.60 C 251.70 208.50 248.40 210.80 245.70 213.60 L 245.70 210.00 C 245.70 207.40 243.60 205.40 241.10 205.40 C 238.60 205.40 236.50 207.50 236.50 210.00 L 236.50 278.40 C 233.80 275.60 230.50 273.20 226.80 271.40 C 219.40 267.70 212.50 267.10 211.20 267.00 C 208.70 266.90 206.50 268.90 206.30 271.40 C 206.20 274.00 208.20 276.10 210.70 276.30 C 211.30 276.30 216.80 276.80 222.60 279.70 C 230.50 283.60 235.20 290.20 236.50 299.10 L 236.50 331.20 C 234.10 330.20 231.60 329.30 229.30 328.50 C 228.40 327.30 226.80 325.30 225.50 323.60 C 221.30 318.20 221.10 318.00 220.80 317.70 C 206.80 302.90 198.00 287.90 194.80 273.00 C 198.20 252.70 218.20 250.90 220.50 250.80 C 221.70 250.70 222.90 250.20 223.70 249.30 C 224.50 248.40 225.00 247.20 224.90 246.00 C 224.80 244.80 224.30 243.60 223.40 242.80 C 222.50 242.00 221.30 241.50 220.10 241.60 C 219.80 241.60 212.50 242.00 204.50 246.00 C 200.30 248.10 196.70 250.80 193.80 254.10 C 195.30 240.40 201.90 227.00 213.30 214.20 C 226.70 199.10 217.70 159.50 217.30 157.80 C 216.70 155.30 214.20 153.70 211.70 154.30 C 210.50 154.60 209.50 155.30 208.80 156.40 C 208.10 157.50 207.90 158.70 208.20 159.90 C 211.40 174.00 213.80 199.60 206.30 208.10 C 189.40 227.10 182.10 247.30 184.50 268.30 C 184.70 270.30 185.00 272.30 185.40 274.20 L 185.40 274.30 L 185.40 274.40 C 185.40 274.50 185.40 274.60 185.50 274.70 C 186.30 278.60 187.50 282.60 189.00 286.60 C 182.10 283.30 177.90 279.40 177.20 275.80 C 176.80 273.30 174.40 271.60 171.80 272.00 C 169.30 272.40 167.60 274.80 168.00 277.40 C 170.20 290.30 188.30 296.90 194.70 298.80 C 199.40 307.20 205.70 315.50 213.40 323.70 C 205.40 321.50 197.50 319.80 189.70 318.70 C 189.30 318.50 188.90 318.20 188.90 318.20 C 178.60 311.50 169.30 302.20 161.30 290.60 C 163.90 284.20 170.20 264.90 163.10 243.50 C 163.70 239.10 167.50 235.40 170.70 233.10 C 174.50 230.30 178.20 228.70 178.40 228.70 C 179.50 228.20 180.40 227.30 180.90 226.20 C 181.40 225.10 181.40 223.80 180.90 222.60 C 180.40 221.50 179.50 220.60 178.40 220.10 C 177.30 219.60 176.00 219.60 174.90 220.10 C 174.50 220.30 165.30 224.00 159.20 231.20 C 158.90 229.50 158.80 227.70 158.80 225.90 C 158.80 205.10 174.70 182.40 175.30 181.40 C 176.80 179.30 176.30 176.40 174.20 174.90 C 172.10 173.40 169.20 173.90 167.70 176.00 C 167.20 176.60 163.40 182.20 159.30 190.10 C 156.80 186.30 153.80 183.80 150.40 182.40 C 148.00 181.50 145.30 182.60 144.40 185.00 C 143.40 187.40 144.60 190.10 147.00 191.00 C 148.80 191.70 150.60 193.50 152.30 196.20 C 153.40 198.00 154.20 199.80 154.50 200.80 C 148.40 216.90 147.70 230.80 152.50 242.00 C 158.90 256.80 157.00 271.40 154.70 280.30 C 141.40 256.80 137.20 234.20 137.10 234.00 C 136.60 231.50 134.20 229.80 131.70 230.30 C 130.50 230.50 129.40 231.20 128.70 232.20 C 128.00 233.20 127.70 234.50 127.90 235.70 C 127.90 235.80 129.20 242.80 132.60 253.40 C 128.90 252.30 124.90 251.80 120.50 251.80 C 117.90 251.80 115.90 253.90 115.90 256.40 C 115.90 258.90 118.00 261.00 120.50 261.00 C 131.60 261.00 136.30 265.10 137.40 266.20 C 137.90 267.50 138.40 268.70 138.90 269.80 C 144.90 283.40 155.40 302.30 171.90 317.10 C 150.10 316.20 129.90 319.70 111.70 327.60 C 110.60 328.10 109.70 329.00 109.20 330.20 C 108.70 331.40 108.80 332.60 109.30 333.70 C 109.80 334.80 110.70 335.70 111.90 336.20 C 113.10 336.70 114.30 336.60 115.50 336.10 C 152.40 320.00 191.60 326.60 218.00 334.90 C 220.20 335.60 222.60 336.40 224.90 337.20 C 229.70 338.90 234.50 340.80 239.20 342.80 C 256.50 350.20 267.40 357.20 267.50 357.30 C 268.30 357.80 269.10 358.10 270.00 358.10 C 271.60 358.10 273.00 357.30 273.90 356.00 C 274.60 355.00 274.80 353.70 274.60 352.50 C 274.30 351.30 273.60 350.20 272.60 349.60 C 272.50 349.50 264.80 344.50 252.00 338.40 C 286.90 315.60 322.90 314.00 347.20 316.70 C 375.50 319.90 395.20 329.40 396.00 329.80 C 398.30 330.90 401.10 330.00 402.20 327.70 C 402.80 326.30 402.90 325.00 402.50 323.80 z" stroke-linecap="round"/>
</g>
</g>
</g>
<g transform="matrix(1 0 0 1 -1830.406147 -359.259611)" id="7b9d57e6-88ec-4fe9-8b98-b7664c8c22d0">

</g>
<g id="b26ab017-b145-4bf4-a21f-d5acbf692293">
<g style="">
		<g id="2c84520d-7087-4a5c-b663-49e551b6581f">
<path style="stroke: rgb(193,193,193); stroke-width: 0; stroke-dasharray: none; stroke-linecap: butt; stroke-dashoffset: 0; stroke-linejoin: miter; stroke-miterlimit: 4; fill: rgb(0,0,0); fill-opacity: 0; fill-rule: nonzero; opacity: 1;" d="M-60.0225,540.22407c-0.81,0 -1.58,-0.17 -2.29,-0.52c-0.72,-0.35 -1.35,-0.82 -1.89,-1.42c-0.53,-0.59 -0.95,-1.27 -1.24,-2.04c-0.3,-0.77 -0.45,-1.58 -0.45,-2.44c0,-0.85 0.15,-1.65 0.45,-2.41c0.29,-0.76 0.71,-1.43 1.24,-2.02c0.54,-0.58 1.17,-1.04 1.89,-1.38c0.73,-0.33 1.51,-0.5 2.36,-0.5c1.19,0 2.2,0.25 3.01,0.75c0.81,0.5 1.43,1.16 1.84,1.99l-1.45,1.04c-0.35,-0.69 -0.83,-1.21 -1.44,-1.55c-0.61,-0.35 -1.27,-0.52 -1.99,-0.52c-0.6,0 -1.15,0.13 -1.64,0.38c-0.49,0.25 -0.91,0.59 -1.26,1.03c-0.35,0.44 -0.62,0.94 -0.8,1.49c-0.19,0.55 -0.28,1.14 -0.28,1.75c0,0.65 0.1,1.26 0.3,1.81c0.2,0.55 0.49,1.04 0.87,1.47c0.37,0.43 0.81,0.77 1.32,1.01c0.5,0.24 1.04,0.36 1.61,0.36c0.7,0 1.36,-0.18 1.98,-0.53c0.63,-0.35 1.21,-0.88 1.75,-1.57v1.93c-1.09,1.26 -2.39,1.89 -3.89,1.89zM-56.3225,535.22407h-2.62v-1.42h4.23v6.33h-1.61zM-52.4325,540.13407v-12.55h5.47c0.55,0 1.07,0.12 1.54,0.35c0.47,0.23 0.88,0.54 1.23,0.93c0.35,0.38 0.63,0.82 0.82,1.31c0.19,0.49 0.28,0.98 0.28,1.47c0,0.57 -0.1,1.1 -0.31,1.61c-0.21,0.51 -0.5,0.94 -0.87,1.31c-0.37,0.37 -0.8,0.63 -1.31,0.8l2.97,4.77h-2.14l-2.76,-4.38h-2.99v4.38zM-50.5025,534.03407h3.52c0.39,0 0.73,-0.11 1.02,-0.33c0.29,-0.21 0.52,-0.5 0.69,-0.86c0.17,-0.36 0.25,-0.76 0.25,-1.2c0,-0.43 -0.1,-0.83 -0.29,-1.19c-0.19,-0.36 -0.45,-0.65 -0.76,-0.86c-0.31,-0.21 -0.65,-0.31 -1,-0.31h-3.43zM-35.5825,540.22407c-0.9,0 -1.71,-0.18 -2.44,-0.53c-0.73,-0.35 -1.36,-0.83 -1.89,-1.44c-0.52,-0.61 -0.93,-1.29 -1.22,-2.05c-0.29,-0.76 -0.43,-1.54 -0.43,-2.35c0,-0.83 0.15,-1.63 0.45,-2.39c0.3,-0.76 0.72,-1.44 1.26,-2.03c0.55,-0.6 1.18,-1.07 1.91,-1.42c0.73,-0.35 1.54,-0.52 2.41,-0.52c0.89,0 1.7,0.18 2.43,0.55c0.73,0.37 1.35,0.85 1.87,1.46c0.53,0.61 0.93,1.3 1.22,2.06c0.29,0.75 0.44,1.53 0.44,2.33c0,0.83 -0.15,1.62 -0.45,2.38c-0.31,0.76 -0.73,1.44 -1.27,2.03c-0.54,0.59 -1.17,1.06 -1.9,1.41c-0.73,0.34 -1.52,0.51 -2.39,0.51zM-39.6225,533.85407c0,0.61 0.1,1.19 0.29,1.75c0.19,0.56 0.46,1.06 0.81,1.49c0.35,0.43 0.78,0.78 1.28,1.03c0.5,0.25 1.06,0.38 1.69,0.38c0.64,0 1.21,-0.13 1.71,-0.39c0.5,-0.27 0.92,-0.62 1.26,-1.07c0.34,-0.44 0.61,-0.94 0.8,-1.5c0.19,-0.56 0.28,-1.12 0.28,-1.69c0,-0.6 -0.1,-1.18 -0.29,-1.73c-0.19,-0.55 -0.47,-1.05 -0.83,-1.49c-0.36,-0.45 -0.79,-0.79 -1.29,-1.04c-0.49,-0.25 -1.04,-0.37 -1.64,-0.37c-0.65,0 -1.22,0.13 -1.72,0.39c-0.5,0.26 -0.93,0.61 -1.28,1.05c-0.35,0.45 -0.61,0.95 -0.79,1.5c-0.19,0.55 -0.28,1.12 -0.28,1.69zM-22.2625,540.22407c-1.01,0 -1.86,-0.17 -2.54,-0.51c-0.69,-0.35 -1.24,-0.82 -1.65,-1.41c-0.42,-0.59 -0.73,-1.27 -0.92,-2.02c-0.2,-0.76 -0.3,-1.54 -0.3,-2.34v-6.36h1.91v6.36c0,0.58 0.06,1.14 0.18,1.69c0.12,0.55 0.31,1.04 0.58,1.47c0.26,0.43 0.62,0.77 1.07,1.02c0.45,0.25 1,0.38 1.66,0.38c0.67,0 1.23,-0.13 1.69,-0.38c0.45,-0.25 0.81,-0.6 1.06,-1.04c0.26,-0.44 0.45,-0.93 0.56,-1.48c0.11,-0.54 0.17,-1.09 0.17,-1.66v-6.36h1.93v6.36c0,0.85 -0.1,1.66 -0.3,2.42c-0.2,0.76 -0.52,1.43 -0.95,2c-0.43,0.58 -0.98,1.03 -1.67,1.36c-0.69,0.33 -1.51,0.5 -2.48,0.5zM-12.2725,531.11407v9.02h-1.93v-12.55h1.6l7.21,9.21v-9.19h1.93v12.53h-1.68zM-0.6325,540.13407v-12.55h4.44c1.35,0 2.48,0.28 3.39,0.84c0.91,0.56 1.59,1.31 2.05,2.26c0.46,0.95 0.69,2 0.69,3.16c0,1.27 -0.25,2.38 -0.76,3.32c-0.51,0.94 -1.22,1.67 -2.13,2.19c-0.91,0.52 -1.99,0.78 -3.24,0.78zM7.9775,533.84407c0,-0.9 -0.16,-1.69 -0.48,-2.38c-0.32,-0.69 -0.79,-1.23 -1.41,-1.61c-0.63,-0.38 -1.39,-0.57 -2.28,-0.57h-2.51v9.15h2.51c0.91,0 1.67,-0.2 2.28,-0.6c0.62,-0.4 1.09,-0.95 1.41,-1.64c0.32,-0.7 0.48,-1.48 0.48,-2.35zM20.6375,538.43407v1.7h-8.61v-12.55h8.45v1.7h-6.53v3.65h5.66v1.58h-5.66v3.92zM22.6975,540.13407v-12.55h4.43c1.36,0 2.49,0.28 3.4,0.84c0.91,0.56 1.59,1.31 2.05,2.26c0.46,0.95 0.69,2 0.69,3.16c0,1.27 -0.25,2.38 -0.76,3.32c-0.51,0.94 -1.22,1.67 -2.13,2.19c-0.91,0.52 -2,0.78 -3.25,0.78zM31.3075,533.84407c0,-0.9 -0.16,-1.69 -0.48,-2.38c-0.32,-0.69 -0.79,-1.23 -1.41,-1.61c-0.63,-0.38 -1.39,-0.57 -2.29,-0.57h-2.51v9.15h2.51c0.91,0 1.68,-0.2 2.29,-0.6c0.62,-0.4 1.09,-0.95 1.41,-1.64c0.32,-0.7 0.48,-1.48 0.48,-2.35zM39.7375,540.13407v-12.55h1.93v12.55zM46.4375,531.11407v9.02h-1.93v-12.55h1.6l7.21,9.21v-9.19h1.93v12.53h-1.68zM64.3875,531.11407v9.02h-1.93v-12.55h1.6l7.21,9.21v-9.19h1.93v12.53h-1.68zM79.7075,527.58407h1.78l4.92,12.55h-2l-1.36,-3.47h-4.95l-1.35,3.47h-1.99zM82.6575,535.25407l-2.07,-5.57l-2.12,5.57zM95.9775,529.28407h-4.21v10.85h-1.91v-10.85h-4.2v-1.7h10.32zM102.9175,540.22407c-1.01,0 -1.86,-0.17 -2.54,-0.51c-0.69,-0.35 -1.24,-0.82 -1.65,-1.41c-0.42,-0.59 -0.73,-1.27 -0.92,-2.02c-0.2,-0.76 -0.3,-1.54 -0.3,-2.34v-6.36h1.91v6.36c0,0.58 0.06,1.14 0.18,1.69c0.12,0.55 0.31,1.04 0.58,1.47c0.26,0.43 0.61,0.77 1.06,1.02c0.45,0.25 1.01,0.38 1.67,0.38c0.67,0 1.23,-0.13 1.68,-0.38c0.46,-0.25 0.82,-0.6 1.07,-1.04c0.26,-0.44 0.45,-0.93 0.56,-1.48c0.11,-0.54 0.17,-1.09 0.17,-1.66v-6.36h1.93v6.36c0,0.85 -0.1,1.66 -0.3,2.42c-0.2,0.76 -0.52,1.43 -0.95,2c-0.43,0.58 -0.99,1.03 -1.67,1.36c-0.69,0.33 -1.51,0.5 -2.48,0.5zM110.9775,540.13407v-12.55h5.47c0.55,0 1.07,0.12 1.54,0.35c0.47,0.23 0.88,0.54 1.23,0.93c0.35,0.38 0.63,0.82 0.82,1.31c0.19,0.49 0.28,0.98 0.28,1.47c0,0.57 -0.1,1.1 -0.31,1.61c-0.21,0.51 -0.5,0.94 -0.87,1.31c-0.37,0.37 -0.8,0.63 -1.31,0.8l2.97,4.77h-2.14l-2.76,-4.38h-2.99v4.38zM112.9075,534.03407h3.52c0.39,0 0.73,-0.11 1.02,-0.33c0.29,-0.21 0.52,-0.5 0.69,-0.86c0.17,-0.36 0.25,-0.76 0.25,-1.2c0,-0.43 -0.1,-0.83 -0.29,-1.19c-0.19,-0.36 -0.45,-0.65 -0.76,-0.86c-0.31,-0.21 -0.65,-0.31 -1,-0.31h-3.43zM131.2575,538.43407v1.7h-8.61v-12.55h8.46v1.7h-6.53v3.65h5.66v1.58h-5.66v3.92z" stroke-linecap="round"/>
</g>
</g>
</g>
<g transform="matrix(1 0 0 1 -1830.406147 -359.259611)" id="a7998fe2-3f41-46f4-a2b9-52e24415f549">

</g>
<g transform="matrix(1 0 0 1 -1830.406147 -359.259611)" id="5fc77ddf-a18a-4a9a-9962-c9e77e65f0be">

</g>

  </svg>