<?xml version="1.0" encoding="UTF-8"?>
<svg id="Layer_2" data-name="Layer 2" xmlns="http://www.w3.org/2000/svg" viewBox="0 0 575.61 96.7">
  <defs>
    <style>
      .cls-1 {
        fill: #c1272d;
      }

      .cls-2 {
        fill: #fff;
      }
    </style>
  </defs>
  <g id="Layer_1-2" data-name="Layer 1">
    <path class="cls-2" d="M0,17.64v19.46h60.93v-19.46H0ZM23.11,42.48H0v54.22h23.11v-28.75h31.3v-17.91h-31.3v-7.56Z"/>
    <path class="cls-2" d="M84.27,17.64h23.55l29.3,79.06h-24.55l-3.87-11.61h-26.76l-3.87,11.61h-23l29.19-79.06ZM87.14,69.17h16.37l-4.98-15.48c-1.22-3.87-2.99-10.17-2.99-10.17h-.22s-1.66,6.3-2.99,10.17l-5.2,15.48Z"/>
    <path class="cls-2" d="M135.69,69.61h23.66c.77,6.3,5.64,9.29,13.27,9.29,4.53,0,10.06-1.77,10.06-6.52s-5.31-5.97-15.04-8.4c-13.27-3.32-29.3-7.85-29.3-24.66,0-18.14,14.82-24.99,32.62-24.99,16.37,0,31.41,6.86,31.74,24.11h-22.89c-.66-4.31-3.76-7.08-10.06-7.08-5.09,0-8.62,2.32-8.62,5.53,0,4.64,6.75,5.31,18.58,8.18,13.27,3.21,26.54,8.4,26.54,25.21s-15.37,26.43-34.06,26.43c-20.57,0-36.16-8.85-36.49-27.09Z"/>
    <path class="cls-2" d="M269.3,27.95v-3c0-3.12.54-5.37,1.84-7.31h-63.9v19.68h22.34v59.38h23.11v-59.38h22.67v-9.37h-6.06Z"/>
    <path class="cls-2" d="M312.53,76.91V17.64h-16.81v10.31h-6.3v68.75h56.95v-19.79h-33.84Z"/>
    <path class="cls-2" d="M375.57,76.91v-12.39h32.17v-17.36h-32.17v-5.68h-23.12v55.22h62.7v-19.79h-39.58ZM414.05,17.64h-61.6v18.46h61.6v-18.46Z"/>
    <path class="cls-2" d="M446.89,17.64h23.55l29.3,79.06h-24.55l-3.87-11.61h-26.76l-3.87,11.61h-23l29.19-79.06ZM449.77,69.17h16.37l-4.98-15.48c-1.22-3.87-2.99-10.17-2.99-10.17h-.22s-1.66,6.3-2.99,10.17l-5.2,15.48Z"/>
    <path class="cls-2" d="M504.07,17.64h23.11l25.88,44.45h.22V17.64h22.34v79.06h-23.88l-25.1-44.79h-.22v44.79h-22.34V17.64Z"/>
    <path class="cls-1" d="M292.72,19.06v5.89h-20.42c0-3.5.71-5.39,2.78-7.28.01-.01.02-.02.03-.03,2.39-2.17,5.91-4.44,8.57-6.25,1.36-.93,2.15-1.93,2.15-3.25,0-1.54-1-2.54-2.93-2.54-1.18,0-2,.32-2.57,1.07-.64.82-.93,1.75-.93,3.36h-6.71c0-2.89.28-4.14,1.21-5.78,1.36-2.43,4.47-4.25,9.14-4.25,6.5,0,9.82,3.39,9.82,7.85,0,2.18-.61,3.93-2,5.29-2.43,2.35-5.53,3.78-8.14,5.85v.07h10Z"/>
  </g>
</svg>