<?xml version="1.0" encoding="UTF-8"?>
<svg id="Layer_2" data-name="Layer 2" xmlns="http://www.w3.org/2000/svg" viewBox="0 0 1028.61 104.83">
  <defs>
    <style>
      .cls-1 {
        fill: #2e7d32;
      }

      .cls-2 {
        fill: #232323;
      }
    </style>
  </defs>
  <g id="Layer_1-2" data-name="Layer 1">
    <path class="cls-2" d="M0,.15V22.83H96.69V.15H0ZM22.83,26.63H0V104.83H22.83V63.83h59.46v-22.68H22.83v-14.52Z"/>
    <path class="cls-2" d="M105.12,21.66c0-3.97,.97-7.58,2.91-10.83,1.94-3.25,4.55-5.84,7.85-7.78,3.29-1.94,6.88-2.91,10.76-2.91h61.5c3.97,0,7.58,.97,10.83,2.91,3.25,1.94,5.86,4.53,7.85,7.78,1.98,3.25,2.98,6.86,2.98,10.83V104.82h-22.83v-33.73h-59.32v33.73h-22.53V21.66Zm81.85,26.75V22.83h-59.32v25.59h59.32Z"/>
    <path class="cls-2" d="M247.6,104.82c-3.88,0-7.46-.97-10.76-2.91-3.3-1.94-5.91-4.55-7.85-7.85-1.94-3.29-2.91-6.88-2.91-10.76v-9.74h22.54v8.58h59.32v-18.32h-60.34c-3.88,0-7.46-.97-10.76-2.91-3.3-1.94-5.91-4.53-7.85-7.78-1.94-3.25-2.91-6.86-2.91-10.83V21.66c0-3.97,.97-7.58,2.91-10.83,1.94-3.25,4.55-5.84,7.85-7.78,3.29-1.94,6.88-2.91,10.76-2.91h61.64c3.88,0,7.44,.97,10.69,2.91,3.25,1.94,5.86,4.53,7.85,7.78,1.99,3.25,2.98,6.86,2.98,10.83v9.74h-22.83v-8.58h-59.32v18.32h60.63c3.88,0,7.44,.97,10.69,2.91,3.25,1.94,5.86,4.53,7.85,7.78,1.99,3.25,2.98,6.86,2.98,10.83v20.64c0,3.88-1,7.46-2.98,10.76-1.99,3.3-4.6,5.91-7.85,7.85-3.25,1.94-6.81,2.91-10.69,2.91h-61.64Z"/>
    <path class="cls-2" d="M382.52,104.82V22.83h-41V.15h104.68V22.83h-41V104.82h-22.68Z"/>
    <path class="cls-1" d="M538.8,65.57c3.88,0,7.42-.96,10.62-2.9,3.2-1.94,5.76-4.51,7.7-7.71,1.94-3.2,2.91-6.73,2.91-10.61V21.23c0-3.87-.97-7.41-2.91-10.61s-4.5-5.75-7.7-7.63c-3.2-1.9-6.74-2.84-10.62-2.84h-60.33c-3.88,0-7.42,.94-10.61,2.84-3.2,1.88-5.77,4.43-7.71,7.63-1.94,3.2-2.91,6.74-2.91,10.61v1.12h80.55v20.83h-59.32c-3.88,0-7.42,.95-10.61,2.84-3.2,1.89-5.77,4.43-7.71,7.63-1.94,3.2-2.91,6.74-2.91,10.62v40.56h89.72c7.22,0,13.07-5.85,13.07-13.07v-9.18h-80.54v-17.01h59.31Z"/>
    <path class="cls-2" d="M577.91,104.82V0h22.54V82.14h82.14v22.68h-104.68Z"/>
    <path class="cls-2" d="M714.14,63.83h59.46v-22.68h-59.46v-14.52h-22.83V104.83h96.69v-22.68h-73.86v-18.32ZM691.31,.15V22.83h96.69V.15h-96.69Z"/>
    <path class="cls-2" d="M802.68,21.66c0-3.97,.97-7.58,2.91-10.83,1.94-3.25,4.55-5.84,7.85-7.78,3.29-1.94,6.88-2.91,10.76-2.91h61.5c3.97,0,7.58,.97,10.83,2.91,3.25,1.94,5.86,4.53,7.85,7.78,1.99,3.25,2.98,6.86,2.98,10.83V104.82h-22.83v-33.73h-59.32v33.73h-22.54V21.66Zm81.85,26.75V22.83h-59.32v25.59h59.32Z"/>
    <path class="cls-2" d="M923.93,104.82V.15h23.26l58.59,69.79V.15h22.83V104.82h-23.26l-58.88-70.08V104.82h-22.54Z"/>
  </g>
</svg>