<?xml version="1.0" encoding="UTF-8"?>
<svg id="Layer_2" data-name="Layer 2" xmlns="http://www.w3.org/2000/svg" viewBox="0 0 575.61 96.7">
  <defs>
    <style>
      .cls-1 {
        fill: #c1272d;
      }

      .cls-2 {
        fill: #1a1a1a;
      }
    </style>
  </defs>
  <g id="Layer_1-2" data-name="Layer 1">
    <path class="cls-2" d="M23.11,50.04v-9.15H0v55.81h23.11v-28.75h31.3v-17.91h-31.3ZM0,17.64v19.46h60.93v-19.46H0Z"/>
    <path class="cls-2" d="M84.27,17.64h23.55l29.3,79.06h-24.55l-3.87-11.61h-26.76l-3.87,11.61h-23l29.19-79.06ZM87.14,69.17h16.37l-4.98-15.48c-1.22-3.87-2.99-10.17-2.99-10.17h-.22s-1.66,6.3-2.99,10.17l-5.2,15.48Z"/>
    <path class="cls-2" d="M135.69,69.61h23.66c.77,6.3,5.64,9.29,13.27,9.29,4.53,0,10.06-1.77,10.06-6.52s-5.31-5.97-15.04-8.4c-13.27-3.32-29.3-7.85-29.3-24.66,0-18.14,14.82-24.99,32.62-24.99,16.37,0,31.41,6.86,31.74,24.11h-22.89c-.66-4.31-3.76-7.08-10.06-7.08-5.09,0-8.62,2.32-8.62,5.53,0,4.64,6.75,5.31,18.58,8.18,13.27,3.21,26.54,8.4,26.54,25.21s-15.37,26.43-34.06,26.43c-20.57,0-36.16-8.85-36.49-27.09Z"/>
    <path class="cls-2" d="M269.29,27.96v-3c0-3.13.54-5.38,1.86-7.32h-63.91v19.68h22.34v59.38h23.11v-59.38h22.67v-9.36h-6.07Z"/>
    <path class="cls-2" d="M312.53,76.91V17.64h-16.82v10.32h-6.29v68.74h56.95v-19.79h-33.84Z"/>
    <path class="cls-2" d="M352.45,17.64v18.46h61.59v-18.46h-61.59ZM375.56,76.91v-12.38h32.18v-17.37h-32.18v-7.28h-23.11v56.82h62.7v-19.79h-39.59Z"/>
    <path class="cls-2" d="M446.89,17.64h23.55l29.3,79.06h-24.55l-3.87-11.61h-26.76l-3.87,11.61h-23l29.19-79.06ZM449.77,69.17h16.37l-4.98-15.48c-1.22-3.87-2.99-10.17-2.99-10.17h-.22s-1.66,6.3-2.99,10.17l-5.2,15.48Z"/>
    <path class="cls-2" d="M504.07,17.64h23.11l25.88,44.45h.22V17.64h22.34v79.06h-23.88l-25.1-44.79h-.22v44.79h-22.34V17.64Z"/>
    <path class="cls-1" d="M292.71,19.06v5.9h-20.42c0-3.5.72-5.4,2.79-7.29.01-.01.02-.02.03-.03,2.39-2.17,5.9-4.44,8.57-6.25,1.36-.93,2.14-1.93,2.14-3.25,0-1.53-1-2.53-2.92-2.53-1.18,0-2,.32-2.57,1.07-.65.82-.93,1.75-.93,3.35h-6.71c0-2.89.28-4.14,1.21-5.78,1.36-2.43,4.46-4.25,9.14-4.25,6.5,0,9.82,3.39,9.82,7.85,0,2.18-.61,3.93-2,5.29-2.43,2.35-5.54,3.78-8.14,5.85v.07h9.99Z"/>
  </g>
</svg>