<?xml version="1.0" encoding="UTF-8"?>
<svg id="Layer_2" data-name="Layer 2" xmlns="http://www.w3.org/2000/svg" viewBox="0 0 481.06 210.99">
  <defs>
    <style>
      .cls-1 {
        fill: #2e7d32;
      }
    </style>
  </defs>
  <g id="Layer_1-2" data-name="Layer 1">
    <path class="cls-1" d="M153.19,12.49v-3.44H0v201.94h61.15v-76.59h89.93v-50.87H61.15v-23.61h92.04v-.5l-12.36-15.06-8.92-10.86,9.62-10.24c3.63-3.86,7.52-7.46,11.66-10.77Z"/>
    <path class="cls-1" d="M255.23,151.68h71.75v53.29h-165.01v-47.54c92.35-65.09,101.13-72.66,101.13-87.8,0-9.69-10.3-15.74-24.53-15.74-20.28,0-36.63,7.87-52.07,20.89l-33.31-40.57C176.51,9.38,210.42,0,238.57,0c52.38,0,86.6,29.06,86.6,69.63,0,27.55-15.75,50.26-69.94,82.05Z"/>
    <polygon class="cls-1" points="481.06 151.17 481.06 204.46 343.3 204.46 343.3 2.51 404.46 2.51 404.46 151.17 481.06 151.17"/>
  </g>
</svg>