<?xml version="1.0" encoding="UTF-8"?>
<svg id="Layer_2" data-name="Layer 2" xmlns="http://www.w3.org/2000/svg" viewBox="0 0 1028.61 104.83">
  <defs>
    <style>
      .cls-1 {
        fill: #2e7d32;
      }

      .cls-2 {
        fill: #232323;
      }
    </style>
  </defs>
  <g id="Layer_1-2" data-name="Layer 1">
    <path class="cls-2" d="M0,.15V22.83H96.69V.15H0ZM22.83,41.15v-14.52H0V104.83H22.83V63.83h59.46v-22.68H22.83Z"/>
    <path class="cls-2" d="M206.82,10.84c-1.99-3.25-4.61-5.84-7.85-7.78-3.25-1.94-6.86-2.91-10.84-2.91h-61.49c-3.88,0-7.47,.97-10.76,2.91-3.3,1.94-5.92,4.53-7.85,7.78-1.94,3.24-2.91,6.85-2.91,10.83v1.16h81.85v25.59h-59.32V26.63h-22.53V104.83h22.53v-33.73h59.32v33.73h22.83V21.67c0-3.98-1-7.59-2.98-10.83Z"/>
    <path class="cls-2" d="M319.93,44.06c-3.25-1.94-6.81-2.91-10.69-2.91h-60.62v-14.52h-22.54v15.68c0,3.98,.97,7.59,2.91,10.83,1.94,3.25,4.55,5.84,7.85,7.78,3.29,1.94,6.88,2.91,10.76,2.91h60.33v18.32h-59.31v-8.58h-22.54v9.74c0,3.88,.97,7.47,2.91,10.76,1.94,3.3,4.55,5.91,7.85,7.85,3.29,1.94,6.88,2.91,10.76,2.91h61.64c3.88,0,7.44-.97,10.69-2.91,3.24-1.94,5.86-4.55,7.85-7.85,1.98-3.29,2.98-6.88,2.98-10.76v-20.64c0-3.98-1-7.59-2.98-10.84-1.99-3.24-4.61-5.83-7.85-7.77Zm7.85-33.22c-1.99-3.25-4.61-5.84-7.85-7.78-3.25-1.94-6.81-2.91-10.69-2.91h-61.64c-3.88,0-7.47,.97-10.76,2.91-3.3,1.94-5.91,4.53-7.85,7.78-1.94,3.24-2.91,6.85-2.91,10.83v1.16h81.85v8.58h22.83v-9.74c0-3.98-1-7.59-2.98-10.83Z"/>
    <path class="cls-2" d="M341.52,.15V22.46h104.68V.15h-104.68Zm41,25.25V104.83h22.68V25.4h-22.68Z"/>
    <path class="cls-1" d="M537.79,23.93v19.25h-59.32c-3.88,0-7.42,.95-10.61,2.84-3.2,1.89-5.77,4.43-7.71,7.63-1.94,3.2-2.91,6.74-2.91,10.62v15.42h22.25v-14.12h59.31c3.88,0,7.42-.96,10.62-2.9,3.2-1.94,5.76-4.51,7.7-7.71,1.94-3.2,2.91-6.73,2.91-10.61V23.93h-22.24Zm19.33-13.31c-1.94-3.2-4.5-5.75-7.7-7.63-3.2-1.9-6.74-2.84-10.62-2.84h-60.33c-3.88,0-7.42,.94-10.61,2.84-3.2,1.88-5.77,4.43-7.71,7.63-1.9,3.13-2.87,6.59-2.91,10.37h102.79c-.04-3.78-1.01-7.24-2.91-10.37Zm-99.88,72.01v22.2h89.72c7.22,0,13.07-5.85,13.07-13.07v-9.13h-102.79Z"/>
    <path class="cls-2" d="M600.45,82.15V0h-22.54V104.83h104.68v-22.68h-82.14Z"/>
    <path class="cls-2" d="M691.31,.15V22.83h96.69V.15h-96.69Zm22.83,82v-18.32h59.46v-22.68h-59.46v-14.52h-22.83V104.83h96.69v-22.68h-73.86Z"/>
    <path class="cls-2" d="M904.38,10.84c-1.99-3.25-4.61-5.84-7.85-7.78-3.25-1.94-6.86-2.91-10.84-2.91h-61.49c-3.88,0-7.47,.97-10.76,2.91-3.3,1.94-5.92,4.53-7.85,7.78-1.94,3.24-2.91,6.85-2.91,10.83v1.16h81.85v25.59h-59.32V26.63h-22.53V104.83h22.53v-33.73h59.32v33.73h22.83V21.67c0-3.98-1-7.59-2.98-10.83Z"/>
    <path class="cls-2" d="M1005.78,.15V65.58l22.83,27.2V.15h-22.83Zm-58.83,0h-23.02V104.83h22.53V34.75l58.89,70.08h23.26v-7.38L946.95,.15Z"/>
  </g>
</svg>