<?xml version="1.0" encoding="UTF-8"?>
<svg id="Layer_2" data-name="Layer 2" xmlns="http://www.w3.org/2000/svg" viewBox="0 0 1682.48 214.61">
  <defs>
    <style>
      .cls-1 {
        fill: #106812;
      }
    </style>
  </defs>
  <g id="Layer_1-2" data-name="Layer 1">
    <path class="cls-1" d="M0,210.97V9.03h153.2v50.86H61.16v23.62h89.92v50.86H61.16v76.6H0Z"/>
    <path class="cls-1" d="M301.86,210.97l-7.87-26.04h-77.51l-7.87,26.04h-66.31L216.78,9.03h76.9l74.48,201.94h-66.31ZM255.24,62.92l-23.01,71.15h46.02l-23.01-71.15Z"/>
    <path class="cls-1" d="M395.42,137.1c15.14,14.53,37.85,26.04,65.09,26.04,11.51,0,22.4-3.94,22.4-11.81s-8.48-11.81-28.46-15.44c-33.3-6.06-84.17-13.93-84.17-64.49,0-34.21,28.46-65.4,83.87-65.4,33,0,62.67,9.39,85.68,28.16l-32.7,43.29c-17.56-13.32-40.27-19.98-56.31-19.98-15.14,0-18.47,5.45-18.47,10.6,0,7.87,8.17,10.6,29.67,14.23,33.3,5.75,82.65,15.44,82.65,62.07s-33,70.24-87.2,70.24c-42.99,0-72.36-12.72-93.86-32.09l31.79-45.41Z"/>
    <path class="cls-1" d="M723.01,14.18v-5.15h-169.25v53.29h54.2v148.65h61.15V62.32h53.9v-5.42l-10.29-12.53-8.91-10.86,9.61-10.25c3.02-3.21,6.21-6.24,9.59-9.08Z"/>
    <path class="cls-1" d="M898.88,151.69v53.28h-165.01v-47.53c92.34-65.09,101.12-72.66,101.12-87.8,0-9.69-10.29-15.74-24.52-15.74-20.29,0-36.64,7.87-52.08,20.89l-33.3-40.57C748.4,9.39,782.31,0,810.47,0c52.38,0,86.59,29.07,86.59,69.64,0,27.55-15.75,50.26-69.94,82.05h71.76Z"/>
    <path class="cls-1" d="M930.4,210.97V9.03h61.16v148.66h76.6v53.29h-137.76Z"/>
    <path class="cls-1" d="M1092.69,210.97V9.03h153.2v50.86h-92.04v23.62h89.92v50.86h-89.92v25.74h92.04v50.86h-153.2Z"/>
    <path class="cls-1" d="M1402.72,9.03h-76.91l-74.48,201.94h66.31l7.87-26.03h.33l16.02-50.87h-.6l23-71.15,23.01,71.15h-.6l16.02,50.87h.33l7.87,26.03h66.31l-74.48-201.94Z"/>
    <path class="cls-1" d="M1623.74,210.97l-74.48-108.39v108.39h-61.16V9.03h62.97l70.24,101.73V9.03h61.16v201.94h-58.74Z"/>
  </g>
</svg>